<?xml version="1.0" standalone="no"?>
<!DOCTYPE svg PUBLIC "-//W3C//DTD SVG 20010904//EN"
 "http://www.w3.org/TR/2001/REC-SVG-20010904/DTD/svg10.dtd">
<svg version="1.0" xmlns="http://www.w3.org/2000/svg"
 width="700.000000pt" height="700.000000pt" viewBox="0 0 700.000000 700.000000"
 preserveAspectRatio="xMidYMid meet">
<metadata>
Created by potrace 1.14, written by Peter Selinger 2001-2017
</metadata>
<g transform="translate(0.000000,700.000000) scale(0.100000,-0.100000)"
fill="#000000" stroke="none">
<path d="M2637 6564 c-1 -1 -27 -5 -57 -8 -209 -24 -404 -159 -499 -346 -16
-30 -64 -160 -106 -287 l-78 -233 -41 -1 c-22 0 -266 -1 -541 -1 -506 0 -575
-4 -700 -41 -157 -45 -334 -170 -442 -312 -43 -56 -97 -159 -122 -232 -52
-149 -50 -72 -50 -2043 0 -1202 3 -1852 10 -1885 6 -27 12 -60 15 -73 21 -105
90 -240 174 -341 64 -78 61 -75 125 -127 131 -106 295 -174 457 -190 95 -9
5376 -9 5448 0 320 40 586 247 709 551 60 148 56 -9 58 2035 3 2052 6 1936
-58 2102 -83 216 -287 418 -497 496 -156 57 -189 59 -785 59 -301 1 -550 2
-552 5 -2 2 -38 107 -80 232 -86 260 -113 318 -184 403 -106 127 -263 212
-425 229 -48 6 -1773 13 -1779 8z m1023 -2199 c86 -11 115 -17 199 -41 390
-113 701 -392 854 -764 45 -109 74 -221 92 -360 6 -46 6 -223 0 -280 -49 -452
-336 -851 -751 -1046 -192 -89 -359 -124 -579 -119 -82 2 -161 6 -175 9 -14 3
-50 11 -80 17 -93 19 -228 67 -314 111 -44 23 -83 45 -86 48 -3 3 -23 17 -45
30 -45 28 -46 28 -135 103 -62 53 -165 161 -184 196 -5 9 -16 22 -24 30 -12
13 -48 71 -97 160 -47 83 -108 261 -131 381 -14 76 -13 354 2 437 65 364 262
670 561 873 172 117 394 198 588 216 39 3 71 7 72 8 5 4 189 -3 233 -9z"/>
</g>
</svg>
